<mxfile host="Electron" modified="2024-04-16T19:41:51.664Z" agent="Mozilla/5.0 (Windows NT 10.0; Win64; x64) AppleWebKit/537.36 (KHTML, like Gecko) draw.io/24.1.0 Chrome/120.0.6099.109 Electron/28.1.0 Safari/537.36" etag="lzE9mliwnGLClgCmzTn7" version="24.1.0" type="device">
  <diagram name="Page-1" id="o65vilw3Pug-pLH16Nbn">
    <mxGraphModel dx="2074" dy="1196" grid="1" gridSize="10" guides="1" tooltips="1" connect="1" arrows="1" fold="1" page="1" pageScale="1" pageWidth="850" pageHeight="1100" math="0" shadow="0">
      <root>
        <mxCell id="0" />
        <mxCell id="1" parent="0" />
        <mxCell id="yqtdJIzbsoDZmMNoD9rc-10" style="edgeStyle=orthogonalEdgeStyle;rounded=0;orthogonalLoop=1;jettySize=auto;html=1;entryX=0;entryY=0.5;entryDx=0;entryDy=0;" edge="1" parent="1" source="yqtdJIzbsoDZmMNoD9rc-11" target="yqtdJIzbsoDZmMNoD9rc-19">
          <mxGeometry relative="1" as="geometry" />
        </mxCell>
        <mxCell id="yqtdJIzbsoDZmMNoD9rc-11" value="&lt;font style=&quot;font-size: 20px;&quot;&gt;Model&lt;/font&gt;" style="rounded=1;whiteSpace=wrap;html=1;fillColor=#dae8fc;strokeColor=#6c8ebf;" vertex="1" parent="1">
          <mxGeometry x="440" y="220" width="160" height="120" as="geometry" />
        </mxCell>
        <mxCell id="yqtdJIzbsoDZmMNoD9rc-12" style="edgeStyle=orthogonalEdgeStyle;rounded=0;orthogonalLoop=1;jettySize=auto;html=1;" edge="1" parent="1" source="yqtdJIzbsoDZmMNoD9rc-13" target="yqtdJIzbsoDZmMNoD9rc-11">
          <mxGeometry relative="1" as="geometry" />
        </mxCell>
        <mxCell id="yqtdJIzbsoDZmMNoD9rc-13" value="&lt;font style=&quot;font-size: 20px;&quot;&gt;Encoder&lt;/font&gt;" style="rounded=1;whiteSpace=wrap;html=1;fillColor=#d5e8d4;strokeColor=#82b366;" vertex="1" parent="1">
          <mxGeometry x="460" y="80" width="120" height="80" as="geometry" />
        </mxCell>
        <mxCell id="yqtdJIzbsoDZmMNoD9rc-19" value="&lt;b&gt;&lt;font style=&quot;font-size: 24px;&quot;&gt;Output&lt;/font&gt;&lt;/b&gt;" style="text;html=1;align=center;verticalAlign=middle;whiteSpace=wrap;rounded=0;" vertex="1" parent="1">
          <mxGeometry x="640" y="260" width="90" height="40" as="geometry" />
        </mxCell>
        <mxCell id="yqtdJIzbsoDZmMNoD9rc-24" style="edgeStyle=orthogonalEdgeStyle;rounded=0;orthogonalLoop=1;jettySize=auto;html=1;entryX=0;entryY=0.5;entryDx=0;entryDy=0;" edge="1" parent="1" source="yqtdJIzbsoDZmMNoD9rc-23" target="yqtdJIzbsoDZmMNoD9rc-13">
          <mxGeometry relative="1" as="geometry" />
        </mxCell>
        <mxCell id="yqtdJIzbsoDZmMNoD9rc-23" value="&lt;b&gt;&lt;font style=&quot;font-size: 24px;&quot;&gt;Conditioning&lt;/font&gt;&lt;/b&gt;" style="text;html=1;align=center;verticalAlign=middle;whiteSpace=wrap;rounded=0;" vertex="1" parent="1">
          <mxGeometry x="250" y="100" width="165" height="40" as="geometry" />
        </mxCell>
        <mxCell id="yqtdJIzbsoDZmMNoD9rc-29" style="edgeStyle=orthogonalEdgeStyle;rounded=0;orthogonalLoop=1;jettySize=auto;html=1;entryX=0;entryY=0.5;entryDx=0;entryDy=0;" edge="1" parent="1" source="yqtdJIzbsoDZmMNoD9rc-25" target="yqtdJIzbsoDZmMNoD9rc-11">
          <mxGeometry relative="1" as="geometry" />
        </mxCell>
        <mxCell id="yqtdJIzbsoDZmMNoD9rc-25" value="&lt;b&gt;&lt;font style=&quot;font-size: 24px;&quot;&gt;Input&lt;/font&gt;&lt;/b&gt;" style="text;html=1;align=center;verticalAlign=middle;whiteSpace=wrap;rounded=0;" vertex="1" parent="1">
          <mxGeometry x="310" y="260" width="90" height="40" as="geometry" />
        </mxCell>
      </root>
    </mxGraphModel>
  </diagram>
</mxfile>
